<?xml version="1.0" encoding="utf-8"?><svg viewBox="0 0 45 23" xmlns="http://www.w3.org/2000/svg" xmlns:xlink="http://www.w3.org/1999/xlink"><style>:root>svg{display:none}:root>svg:target{display:block}</style><svg fill="none" viewBox="0 0 15 15" id="arrow-down" xmlns="http://www.w3.org/2000/svg"><path d="M13.516 14.785a1 1 0 001.01-.99l.092-9a1 1 0 00-2-.02l-.081 8-8-.082a1 1 0 10-.02 2l9 .092zM.286 1.7l12.526 12.785 1.429-1.4L1.714.3.286 1.7z" fill="#000"/></svg><svg fill="none" viewBox="0 0 45 8" id="arrow-right" xmlns="http://www.w3.org/2000/svg"><path d="M44.354 4.354a.5.5 0 000-.708L41.172.464a.5.5 0 10-.707.708L43.293 4l-2.828 2.828a.5.5 0 10.707.708l3.182-3.182zM0 4.5h44v-1H0v1z" fill="#000"/></svg><svg fill="none" viewBox="0 0 16 17" id="bag" xmlns="http://www.w3.org/2000/svg"><path fill-rule="evenodd" clip-rule="evenodd" d="M4.028 5.5s.012 1 .012 1.5.972.5.985 0c.014-.5 0-1.5 0-1.5h5.986s-.013 1-.013 1.5 1.009.5 1 0c-.01-.5.011-1.5.011-1.5h2.993v9c0 .338-.173.717-.477 1.021-.304.305-.683.479-1.02.479H2.532c-.331 0-.736-.196-1.031-.5a1.67 1.67 0 01-.467-1.041c0-2.959-.03-5.995-.003-8.959h2.998zm-3.986-1H4.04c.076-1.562.516-2.672 1.217-3.408C6.032.278 7.053 0 8.019 0c.965 0 1.986.278 2.761 1.092.7.736 1.14 1.846 1.217 3.408H16v10c0 .663-.325 1.284-.77 1.729-.444.445-1.063.771-1.724.771H2.53c-.666 0-1.266-.33-1.698-.776C.4 15.777.09 15.173.038 14.54.033 11.194.01 7.847.042 4.501zm10.956 0c-.074-1.372-.459-2.213-.94-2.717C9.524 1.222 8.8 1 8.018 1c-.78 0-1.505.222-2.04.783-.48.504-.865 1.345-.94 2.717h5.96z" fill="#000"/></svg><svg fill="none" viewBox="0 0 23 23" id="logo" xmlns="http://www.w3.org/2000/svg"><circle cx="11.5" cy="11.5" r="11" stroke="#000"/><path fill="#000" d="M10.098 5.048h1.683v14.585h-1.683z"/><rect x="11.22" y="2.805" width="1.122" height="1.122" rx=".561" fill="#000"/></svg><svg fill="none" viewBox="0 0 13 14" id="search" xmlns="http://www.w3.org/2000/svg"><path stroke="#000" d="M8.912 9.917l3.44 3.408"/><circle cx="5.564" cy="5.564" r="5.064" stroke="#000"/></svg></svg>