<?xml version="1.0" encoding="utf-8"?><svg viewBox="0 0 61 61" xmlns="http://www.w3.org/2000/svg" xmlns:xlink="http://www.w3.org/1999/xlink"><style>:root>svg{display:none}:root>svg:target{display:block}</style><svg fill="none" viewBox="0 0 15 15" id="arrow-down" xmlns="http://www.w3.org/2000/svg"><path d="M13.516 14.785a1 1 0 001.01-.99l.092-9a1 1 0 00-2-.02l-.081 8-8-.082a1 1 0 10-.02 2l9 .092zM.286 1.7l12.526 12.785 1.429-1.4L1.714.3.286 1.7z" fill="#000"/></svg><svg viewBox="0 0 15 15" id="arrow-down-1" xmlns="http://www.w3.org/2000/svg"><path d="M12.186 4.993L7.5 9.561 2.814 4.993a.448.448 0 00-.72.14.426.426 0 00.094.47l4.985 4.86a.469.469 0 00.654 0l4.985-4.86a.426.426 0 000-.61.448.448 0 00-.626 0z"/></svg><svg fill="none" viewBox="0 0 45 8" id="arrow-right" xmlns="http://www.w3.org/2000/svg"><path d="M44.354 4.354a.5.5 0 000-.708L41.172.464a.5.5 0 10-.707.708L43.293 4l-2.828 2.828a.5.5 0 10.707.708l3.182-3.182zM0 4.5h44v-1H0v1z" fill="#000"/></svg><svg fill="none" viewBox="0 0 16 17" id="bag" xmlns="http://www.w3.org/2000/svg"><path fill-rule="evenodd" clip-rule="evenodd" d="M4.028 5.5s.012 1 .012 1.5.972.5.985 0c.014-.5 0-1.5 0-1.5h5.986s-.013 1-.013 1.5 1.009.5 1 0c-.01-.5.011-1.5.011-1.5h2.993v9c0 .338-.173.717-.477 1.021-.304.305-.683.479-1.02.479H2.532c-.331 0-.736-.196-1.031-.5a1.67 1.67 0 01-.467-1.041c0-2.959-.03-5.995-.003-8.959h2.998zm-3.986-1H4.04c.076-1.562.516-2.672 1.217-3.408C6.032.278 7.053 0 8.019 0c.965 0 1.986.278 2.761 1.092.7.736 1.14 1.846 1.217 3.408H16v10c0 .663-.325 1.284-.77 1.729-.444.445-1.063.771-1.724.771H2.53c-.666 0-1.266-.33-1.698-.776C.4 15.777.09 15.173.038 14.54.033 11.194.01 7.847.042 4.501zm10.956 0c-.074-1.372-.459-2.213-.94-2.717C9.524 1.222 8.8 1 8.018 1c-.78 0-1.505.222-2.04.783-.48.504-.865 1.345-.94 2.717h5.96z" fill="#000"/></svg><svg fill="none" viewBox="0 0 59 59" id="fb" xmlns="http://www.w3.org/2000/svg"><path d="M29.5 0C13.235 0 0 13.232 0 29.5S13.235 59 29.5 59 59 45.768 59 29.5 45.765 0 29.5 0zm0 57.035c-15.181 0-27.531-12.353-27.531-27.535S14.319 1.965 29.5 1.965 57.032 14.318 57.032 29.5 44.681 57.035 29.5 57.035z" fill="#000"/><path d="M35.939 12.94H31.03c-6.251-.063-7.05 3.807-7.05 7.994v3.045h-2.759a.82.82 0 00-.92.92v5.52a.819.819 0 00.92.92h2.76v13.798a.826.826 0 00.925.92h5.62c.543.063.983-.377.81-.92l.004-13.799h4.599a.82.82 0 00.92-.92v-5.52a.82.82 0 00-.92-.92h-4.605l.006-2.759c.178-1.175.178-.984 1.269-.92H35.9c.256-.057.528-.026.72-.211.19-.186.301-.44.237-.709v-5.52a.817.817 0 00-.918-.92zm-.984 5.416l-2.307-.088c-2.858 0-3.097 1.551-3.097 3.139l-.007 3.488a.983.983 0 00.982.985h4.493v3.554H30.53a.984.984 0 00-.984.982l-.002 13.801H25.82V30.418c0-.542-.37-.982-.914-.982h-2.765V25.88h2.765a.982.982 0 00.695-.287c.184-.186.218-.436.218-.697v-3.965c0-4.125.833-6.09 5.21-6.09h3.924v3.514h.002z" fill="#000"/></svg><svg fill="none" viewBox="0 0 61 61" id="instagram" xmlns="http://www.w3.org/2000/svg"><path d="M44.105 1h-27.21C8.115 1 1 8.117 1 16.895v27.21C1 52.885 8.117 60 16.897 60h27.206C52.883 60 60 52.883 60 44.103V16.895C60 8.115 52.883 1 44.103 1h.002z" stroke="#000" stroke-width="2" stroke-miterlimit="10"/><path d="M30.5 44.743c7.865 0 14.242-6.376 14.242-14.242 0-7.865-6.377-14.241-14.242-14.241-7.866 0-14.242 6.376-14.242 14.241 0 7.866 6.377 14.242 14.242 14.242z" stroke="#000" stroke-width="2" stroke-miterlimit="10"/><path d="M47.793 16.258a3.051 3.051 0 100-6.103 3.051 3.051 0 000 6.103z" fill="#000"/></svg><svg fill="none" viewBox="0 0 23 23" id="logo" xmlns="http://www.w3.org/2000/svg"><circle cx="11.5" cy="11.5" r="11" stroke="#000"/><path fill="#000" d="M10.098 5.048h1.683v14.585h-1.683z"/><rect x="11.22" y="2.805" width="1.122" height="1.122" rx=".561" fill="#000"/></svg><svg viewBox="0 0 41 41" id="plus" xmlns="http://www.w3.org/2000/svg"><path fill-rule="evenodd" clip-rule="evenodd" d="M20.5 0a1.708 1.708 0 011.708 1.708v17.084h17.084a1.708 1.708 0 010 3.416H22.208v17.084a1.708 1.708 0 11-3.416 0V22.208H1.708a1.708 1.708 0 110-3.416h17.084V1.708A1.709 1.709 0 0120.5 0z"/></svg><svg fill="none" viewBox="0 0 13 14" id="search" xmlns="http://www.w3.org/2000/svg"><path stroke="#000" d="M8.912 9.917l3.44 3.408"/><circle cx="5.564" cy="5.564" r="5.064" stroke="#000"/></svg><svg fill="none" viewBox="0 0 59 59" id="twitter" xmlns="http://www.w3.org/2000/svg"><path d="M29.5 0C13.235 0 0 13.232 0 29.5S13.235 59 29.5 59 59 45.768 59 29.5 45.765 0 29.5 0zm0 57.035c-15.181 0-27.531-12.353-27.531-27.535S14.319 1.965 29.5 1.965 57.032 14.318 57.032 29.5 44.681 57.035 29.5 57.035z" fill="#000"/><path d="M45.679 20.386c.204-.378.372-.774.502-1.184a.984.984 0 00-1.437-1.146c-.943.56-1.963.978-3.028 1.238a7.048 7.048 0 00-4.713-1.816 7.026 7.026 0 00-7.017 7.31 16.228 16.228 0 01-10.551-5.847.986.986 0 00-1.612.129 7.016 7.016 0 00-.121 6.846 1.157 1.157 0 00-.394.143 1.052 1.052 0 00-.485.886 7.04 7.04 0 002.426 5.307l-.064.065a.984.984 0 00-.199.953 7.02 7.02 0 004.018 4.351 11.285 11.285 0 01-6.266 1.065 1.002 1.002 0 00-1.041.648.986.986 0 00.395 1.16 18.104 18.104 0 009.786 2.867c11.37 0 18.165-9.236 18.165-18.164l-.002-.302a13.107 13.107 0 002.835-3.054.985.985 0 00-1.197-1.456zm-3.21 3.228a.985.985 0 00-.409.849c.011.242.017.489.017.732 0 7.963-6.059 16.2-16.197 16.2-1.809 0-3.604-.303-5.312-.898a13.014 13.014 0 005.602-2.558.984.984 0 00-.589-1.757 5.063 5.063 0 01-4.036-2.138 7.048 7.048 0 001.365-.228.982.982 0 00-.066-1.913 5.042 5.042 0 01-3.828-3.505c.489.123.991.195 1.493.212.433-.002.834-.267.968-.683a.98.98 0 00-.39-1.117 5.052 5.052 0 01-2.103-5.418 18.182 18.182 0 0012.084 5.468c.323.002.607-.114.804-.351a.986.986 0 00.202-.854 5.06 5.06 0 018.614-4.61.985.985 0 00.908.292c.304-.061.604-.131.9-.212a4.67 4.67 0 01-.416.278.985.985 0 00.622 1.818l.335-.043c-.184.152-.374.298-.569.436z" fill="#000"/></svg></svg>